<?xml version="1.0" standalone="no"?><svg xmlns="http://www.w3.org/2000/svg" viewBox="0 0 1440 320"><path fill="#91c1e2" fill-opacity="1" d="M0,32L20,32C40,32,80,32,120,58.7C160,85,200,139,240,149.3C280,160,320,128,360,106.7C400,85,440,75,480,90.7C520,107,560,149,600,186.7C640,224,680,256,720,245.3C760,235,800,181,840,160C880,139,920,149,960,128C1000,107,1040,53,1080,26.7C1120,0,1160,0,1200,26.7C1240,53,1280,107,1320,117.3C1360,128,1400,96,1420,80L1440,64L1440,320L1420,320C1400,320,1360,320,1320,320C1280,320,1240,320,1200,320C1160,320,1120,320,1080,320C1040,320,1000,320,960,320C920,320,880,320,840,320C800,320,760,320,720,320C680,320,640,320,600,320C560,320,520,320,480,320C440,320,400,320,360,320C320,320,280,320,240,320C200,320,160,320,120,320C80,320,40,320,20,320L0,320Z"></path></svg>