<?xml version="1.0" standalone="no"?>
<svg xmlns:xlink="http://www.w3.org/1999/xlink" id="wave" style="transform:rotate(180deg); transition: 0.3s" viewBox="0 0 1440 330" version="1.1" xmlns="http://www.w3.org/2000/svg"><defs><linearGradient id="sw-gradient-0" x1="0" x2="0" y1="1" y2="0"><stop stop-color="rgba(236, 177, 200, 1)" offset="0%"/><stop stop-color="rgba(236, 177, 200, 1)" offset="100%"/></linearGradient></defs><path style="transform:translate(0, 0px); opacity:1" fill="url(#sw-gradient-0)" d="M0,0L15,44C30,88,60,176,90,198C120,220,150,176,180,143C210,110,240,88,270,82.5C300,77,330,88,360,121C390,154,420,209,450,209C480,209,510,154,540,132C570,110,600,121,630,143C660,165,690,198,720,192.5C750,187,780,143,810,132C840,121,870,143,900,159.5C930,176,960,187,990,159.5C1020,132,1050,66,1080,44C1110,22,1140,44,1170,93.5C1200,143,1230,220,1260,209C1290,198,1320,99,1350,77C1380,55,1410,110,1440,115.5C1470,121,1500,77,1530,99C1560,121,1590,209,1620,253C1650,297,1680,297,1710,269.5C1740,242,1770,187,1800,181.5C1830,176,1860,220,1890,225.5C1920,231,1950,198,1980,181.5C2010,165,2040,165,2070,143C2100,121,2130,77,2145,55L2160,33L2160,330L2145,330C2130,330,2100,330,2070,330C2040,330,2010,330,1980,330C1950,330,1920,330,1890,330C1860,330,1830,330,1800,330C1770,330,1740,330,1710,330C1680,330,1650,330,1620,330C1590,330,1560,330,1530,330C1500,330,1470,330,1440,330C1410,330,1380,330,1350,330C1320,330,1290,330,1260,330C1230,330,1200,330,1170,330C1140,330,1110,330,1080,330C1050,330,1020,330,990,330C960,330,930,330,900,330C870,330,840,330,810,330C780,330,750,330,720,330C690,330,660,330,630,330C600,330,570,330,540,330C510,330,480,330,450,330C420,330,390,330,360,330C330,330,300,330,270,330C240,330,210,330,180,330C150,330,120,330,90,330C60,330,30,330,15,330L0,330Z"/></svg>